<svg xmlns="http://www.w3.org/2000/svg" viewBox="0 0 96 96"><rect width="96" height="96" fill="#d9e0f4"/><path d="M10 96c2-20 16-31 38-31s36 11 38 31" fill="#3868a8"/><path d="M27 44c-2-23 6-35 21-35 17 0 23 13 20 36l-6 22H34z" fill="#463025"/><ellipse cx="48" cy="42" rx="18" ry="22" fill="#efc49f"/><path d="M30 37c0-18 8-27 19-27 14 0 21 10 19 27-5-7-12-10-20-10-7 0-12 3-18 10" fill="#463025"/><circle cx="41" cy="43" r="1.5" fill="#30221d"/><circle cx="55" cy="43" r="1.5" fill="#30221d"/><path d="M42 53q6 4 12 0" fill="none" stroke="#a85c57" stroke-width="2" stroke-linecap="round"/></svg>
